<svg width="238" height="88" viewBox="0 0 238 88" fill="none" xmlns="http://www.w3.org/2000/svg">
<path d="M28.3287 0.919998V35H22.9047V19.976H5.72068V35H0.344685V0.919998H5.72068V15.176H22.9047V0.919998H28.3287ZM59.7766 35.24C57.3446 35.24 55.1206 34.76 53.1046 33.8C51.1206 32.84 49.4086 31.544 47.9686 29.912C46.5286 28.248 45.4086 26.392 44.6086 24.344C43.8406 22.264 43.4566 20.136 43.4566 17.96C43.4566 15.688 43.8726 13.528 44.7046 11.48C45.5366 9.4 46.6886 7.56 48.1606 5.96C49.6326 4.328 51.3606 3.048 53.3446 2.12C55.3606 1.16 57.5366 0.679998 59.8726 0.679998C62.3046 0.679998 64.5126 1.176 66.4966 2.168C68.5126 3.16 70.2246 4.488 71.6326 6.152C73.0726 7.816 74.1766 9.672 74.9446 11.72C75.7446 13.768 76.1446 15.864 76.1446 18.008C76.1446 20.28 75.7286 22.456 74.8966 24.536C74.0966 26.584 72.9606 28.424 71.4886 30.056C70.0166 31.656 68.2726 32.92 66.2566 33.848C64.2726 34.776 62.1126 35.24 59.7766 35.24ZM48.9286 17.96C48.9286 20.104 49.3766 22.136 50.2726 24.056C51.1686 25.944 52.4166 27.48 54.0166 28.664C55.6486 29.816 57.5846 30.392 59.8246 30.392C61.5206 30.392 63.0406 30.04 64.3846 29.336C65.7286 28.632 66.8646 27.688 67.7926 26.504C68.7206 25.288 69.4246 23.944 69.9046 22.472C70.3846 21 70.6246 19.496 70.6246 17.96C70.6246 15.816 70.1766 13.8 69.2806 11.912C68.4166 10.024 67.1686 8.504 65.5366 7.352C63.9046 6.168 62.0006 5.576 59.8246 5.576C58.0966 5.576 56.5606 5.928 55.2166 6.632C53.8726 7.336 52.7366 8.28 51.8086 9.464C50.8806 10.648 50.1606 11.976 49.6486 13.448C49.1686 14.92 48.9286 16.424 48.9286 17.96ZM102.094 1.064H107.134L111.358 12.632L115.63 1.064H120.67L114.814 16.232L119.902 28.76L130.51 0.919998H136.414L122.446 35H117.79L111.406 19.736L104.974 35H100.27L86.3498 0.919998H92.2058L102.862 28.76L107.95 16.232L102.094 1.064ZM193.362 5.672H182.034V35H176.61V5.672H165.234V0.919998H193.362V5.672ZM220.802 35.24C218.37 35.24 216.146 34.76 214.13 33.8C212.146 32.84 210.434 31.544 208.994 29.912C207.554 28.248 206.434 26.392 205.634 24.344C204.866 22.264 204.482 20.136 204.482 17.96C204.482 15.688 204.898 13.528 205.73 11.48C206.562 9.4 207.714 7.56 209.186 5.96C210.658 4.328 212.386 3.048 214.37 2.12C216.386 1.16 218.562 0.679998 220.898 0.679998C223.33 0.679998 225.538 1.176 227.522 2.168C229.538 3.16 231.25 4.488 232.658 6.152C234.098 7.816 235.202 9.672 235.97 11.72C236.77 13.768 237.17 15.864 237.17 18.008C237.17 20.28 236.754 22.456 235.922 24.536C235.122 26.584 233.986 28.424 232.514 30.056C231.042 31.656 229.298 32.92 227.282 33.848C225.298 34.776 223.138 35.24 220.802 35.24ZM209.954 17.96C209.954 20.104 210.402 22.136 211.298 24.056C212.194 25.944 213.442 27.48 215.042 28.664C216.674 29.816 218.61 30.392 220.85 30.392C222.546 30.392 224.066 30.04 225.41 29.336C226.754 28.632 227.89 27.688 228.818 26.504C229.746 25.288 230.45 23.944 230.93 22.472C231.41 21 231.65 19.496 231.65 17.96C231.65 15.816 231.202 13.8 230.306 11.912C229.442 10.024 228.194 8.504 226.562 7.352C224.93 6.168 223.026 5.576 220.85 5.576C219.122 5.576 217.586 5.928 216.242 6.632C214.898 7.336 213.762 8.28 212.834 9.464C211.906 10.648 211.186 11.976 210.674 13.448C210.194 14.92 209.954 16.424 209.954 17.96ZM195.592 77.392C195.592 75.728 195.88 74.256 196.456 72.976C197.032 71.696 198.072 70.592 199.576 69.664C200.12 69.344 200.744 68.992 201.448 68.608C202.184 68.192 202.888 67.712 203.56 67.168C204.264 66.624 204.84 65.984 205.288 65.248C205.768 64.512 206.008 63.648 206.008 62.656C206.008 61.088 205.464 59.888 204.376 59.056C203.288 58.224 202.072 57.808 200.728 57.808C199.224 57.808 197.928 58.256 196.84 59.152C195.752 60.016 194.904 60.976 194.296 62.032L190.84 59.68C191.704 57.728 193.048 56.208 194.872 55.12C196.728 54.032 198.728 53.488 200.872 53.488C202.472 53.488 204.008 53.824 205.48 54.496C206.984 55.136 208.216 56.144 209.176 57.52C210.136 58.896 210.616 60.672 210.616 62.848C210.616 64.32 210.36 65.568 209.848 66.592C209.368 67.584 208.712 68.432 207.88 69.136C207.048 69.84 206.104 70.48 205.048 71.056C204.248 71.536 203.448 72.032 202.648 72.544C201.88 73.024 201.24 73.632 200.728 74.368C200.248 75.104 200.008 76.112 200.008 77.392H195.592ZM195.736 88V81.952H200.104V88H195.736Z" fill="white"/>
<path d="M36.4759 88V53.92H50.7799C52.3159 53.92 53.7239 54.24 55.0039 54.88C56.3159 55.52 57.4359 56.368 58.3639 57.424C59.3239 58.48 60.0599 59.664 60.5719 60.976C61.0839 62.288 61.3399 63.632 61.3399 65.008C61.3399 66.928 60.9079 68.736 60.0439 70.432C59.1799 72.128 57.9799 73.504 56.4439 74.56C54.9079 75.616 53.1159 76.144 51.0679 76.144H41.8519V88H36.4759ZM41.8519 71.392H50.7319C52.2359 71.392 53.4679 70.784 54.4279 69.568C55.3879 68.352 55.8679 66.832 55.8679 65.008C55.8679 63.76 55.6119 62.672 55.0999 61.744C54.5879 60.784 53.9159 60.032 53.0839 59.488C52.2839 58.944 51.4039 58.672 50.4439 58.672H41.8519V71.392ZM75.9822 88V53.92H81.3582V83.248H99.6462V88H75.9822ZM123.453 53.92H128.541L141.789 88H136.125L132.525 78.736H119.373L115.821 88H110.109L123.453 53.92ZM131.469 74.752L125.997 59.824L120.333 74.752H131.469ZM154.397 53.92L163.805 70.864L173.309 53.92H179.213L166.493 75.808V88H161.117V75.712L148.493 53.92H154.397Z" fill="#DCC342"/>
</svg>
