<svg width="25" height="25" viewBox="0 0 25 25" fill="none" xmlns="http://www.w3.org/2000/svg">
<path d="M17.7532 1H6.58442C3.50023 1 1 3.50023 1 6.58442V17.7532C1 20.8374 3.50023 23.3377 6.58442 23.3377H17.7532C20.8374 23.3377 23.3377 20.8374 23.3377 17.7532V6.58442C23.3377 3.50023 20.8374 1 17.7532 1Z" stroke="white" stroke-width="2" stroke-linecap="round" stroke-linejoin="round"/>
<path d="M16.6358 11.4655C16.7736 12.3951 16.6148 13.3444 16.182 14.1785C15.7493 15.0126 15.0645 15.6889 14.2251 16.1114C13.3858 16.5339 12.4346 16.6809 11.5068 16.5317C10.5791 16.3824 9.722 15.9443 9.05754 15.2799C8.39308 14.6154 7.95506 13.7584 7.80577 12.8306C7.65648 11.9029 7.80353 10.9517 8.226 10.1123C8.64848 9.27294 9.32486 8.58816 10.1589 8.15537C10.993 7.72258 11.9424 7.56381 12.8719 7.70165C13.82 7.84225 14.6978 8.28406 15.3756 8.96183C16.0534 9.63961 16.4952 10.5174 16.6358 11.4655Z" stroke="white" stroke-width="2" stroke-linecap="round" stroke-linejoin="round"/>
<path d="M18.3115 6.02612H18.3236" stroke="white" stroke-width="2" stroke-linecap="round" stroke-linejoin="round"/>
</svg>
