<svg width="100" height="100" viewBox="0 0 100 100" fill="none" xmlns="http://www.w3.org/2000/svg">
<path d="M82.0589 77.8815H79.4771V22.6612C79.4771 21.9554 79.2596 21.2785 78.8722 20.7795C78.4849 20.2804 77.9596 20 77.4118 20H69.1503C68.6026 20 68.0772 20.2804 67.6899 20.7795C67.3026 21.2785 67.085 21.9554 67.085 22.6612V77.8815H63.9869V46.6122C63.9869 45.9064 63.7693 45.2295 63.382 44.7304C62.9947 44.2313 62.4694 43.951 61.9216 43.951H53.6601C53.1124 43.951 52.587 44.2313 52.1997 44.7304C51.8124 45.2295 51.5948 45.9064 51.5948 46.6122V77.8815H48.4967V76.5509V54.5958C48.4967 53.89 48.2791 53.2132 47.8918 52.7141C47.5045 52.215 46.9792 51.9346 46.4314 51.9346H38.1699C37.6222 51.9346 37.0968 52.215 36.7095 52.7141C36.3222 53.2132 36.1046 53.89 36.1046 54.5958V77.8815H33.0065V75.2203V61.2489C33.0065 60.5431 32.7889 59.8662 32.4016 59.3671C32.0143 58.868 31.4889 58.5877 30.9412 58.5877H22.6797C22.132 58.5877 21.6066 58.868 21.2193 59.3671C20.832 59.8662 20.6144 60.5431 20.6144 61.2489V77.8815H18.0327C17.7588 77.8815 17.4961 78.0217 17.3025 78.2712C17.1088 78.5208 17 78.8592 17 79.2121C17 79.565 17.1088 79.9035 17.3025 80.153C17.4961 80.4025 17.7588 80.5427 18.0327 80.5427H82.0589C82.3327 80.5427 82.5954 80.4025 82.7891 80.153C82.9827 79.9035 83.0915 79.565 83.0915 79.2121C83.0915 78.8592 82.9827 78.5208 82.7891 78.2712C82.5954 78.0217 82.3327 77.8815 82.0589 77.8815Z" fill="white"/>
</svg>
