<svg width="316" height="300" viewBox="0 0 316 300" fill="none" xmlns="http://www.w3.org/2000/svg">
<g filter="url(#filter0_d)">
<g clip-path="url(#clip0)">
<rect x="18" y="2" width="280" height="280" rx="140" fill="white"/>
<path d="M106.333 65.4V267H49.3086V109.464H11.8686V65.4H106.333Z" fill="#BBBCC4" fill-opacity="0.62"/>
<path d="M142.491 139.301L142.45 119.421L151.102 119.404C151.998 119.402 152.819 119.587 153.567 119.958C154.314 120.33 154.959 120.824 155.502 121.438C156.063 122.053 156.494 122.743 156.794 123.508C157.113 124.273 157.273 125.056 157.275 125.859C157.277 126.755 157.11 127.605 156.776 128.408C156.46 129.193 156.014 129.875 155.436 130.455C154.859 131.035 154.178 131.456 153.395 131.719L158.087 139.269L154.559 139.276L150.232 132.369L145.612 132.379L145.627 139.295L142.491 139.301ZM145.607 129.607L151.095 129.596C151.673 129.594 152.186 129.425 152.634 129.088C153.081 128.733 153.435 128.275 153.695 127.714C153.955 127.154 154.084 126.537 154.083 125.865C154.081 125.175 153.931 124.559 153.631 124.018C153.331 123.459 152.938 123.012 152.452 122.677C151.966 122.342 151.453 122.175 150.911 122.176L145.591 122.187L145.607 129.607ZM176.593 136.459L176.598 139.231L162.962 139.259L162.921 119.379L176.305 119.352L176.311 122.124L166.063 122.145L166.075 127.801L174.951 127.782L174.956 130.386L166.08 130.405L166.093 136.481L176.593 136.459ZM189.558 139.344C188.233 139.347 187 139.079 185.86 138.54C184.739 138.001 183.748 137.256 182.888 136.306C182.046 135.356 181.381 134.274 180.893 133.062C180.424 131.85 180.188 130.562 180.185 129.2C180.182 127.856 180.413 126.586 180.877 125.39C181.341 124.176 182.002 123.11 182.859 122.194C183.715 121.259 184.713 120.529 185.85 120.004C187.006 119.46 188.266 119.187 189.628 119.184C191.514 119.18 193.101 119.578 194.391 120.378C195.681 121.16 196.663 122.203 197.337 123.508L194.933 125.249C194.389 124.168 193.641 123.357 192.688 122.818C191.735 122.278 190.689 122.01 189.55 122.012C188.3 122.015 187.208 122.362 186.276 123.055C185.345 123.729 184.628 124.617 184.126 125.719C183.624 126.822 183.375 128.008 183.377 129.277C183.38 130.621 183.663 131.843 184.225 132.943C184.787 134.025 185.545 134.891 186.498 135.543C187.47 136.194 188.572 136.518 189.804 136.516C191.858 136.511 193.704 135.528 195.342 133.564L195.338 131.464L191.166 131.473L191.161 129.149L197.965 129.135L197.986 139.187L195.354 139.192L195.349 136.728C193.691 138.468 191.761 139.34 189.558 139.344ZM203.523 139.175L203.482 119.295L206.618 119.289L206.659 139.169L203.523 139.175ZM224.84 123.927C224.597 123.648 224.195 123.359 223.634 123.062C223.092 122.746 222.457 122.476 221.729 122.254C221 122.031 220.244 121.921 219.46 121.922C218.135 121.925 217.155 122.17 216.522 122.656C215.907 123.143 215.6 123.816 215.602 124.674C215.603 125.309 215.781 125.813 216.137 126.185C216.492 126.539 217.034 126.846 217.763 127.106C218.491 127.347 219.407 127.597 220.508 127.856C221.853 128.171 223.011 128.551 223.983 128.997C224.973 129.424 225.73 130.001 226.254 130.728C226.797 131.455 227.07 132.416 227.072 133.611C227.075 134.973 226.751 136.075 226.099 136.917C225.447 137.758 224.562 138.376 223.443 138.77C222.342 139.146 221.129 139.335 219.804 139.338C218.292 139.341 216.826 139.111 215.407 138.647C213.987 138.183 212.716 137.523 211.595 136.667L213.017 133.976C213.335 134.292 213.84 134.655 214.531 135.065C215.223 135.455 216.026 135.799 216.941 136.096C217.875 136.374 218.846 136.512 219.854 136.51C221.086 136.507 222.038 136.29 222.709 135.86C223.38 135.41 223.715 134.775 223.713 133.954C223.712 133.282 223.486 132.75 223.038 132.359C222.607 131.949 221.981 131.615 221.16 131.355C220.356 131.077 219.385 130.789 218.246 130.493C216.938 130.16 215.846 129.779 214.967 129.352C214.089 128.924 213.425 128.384 212.976 127.732C212.545 127.079 212.329 126.23 212.327 125.185C212.324 123.879 212.639 122.777 213.272 121.879C213.905 120.963 214.762 120.28 215.844 119.83C216.944 119.361 218.176 119.125 219.538 119.122C220.882 119.119 222.124 119.332 223.264 119.759C224.403 120.186 225.403 120.715 226.263 121.348L224.84 123.927ZM246.741 121.978L240.133 121.992L240.169 139.1L237.005 139.106L236.97 121.998L230.334 122.012L230.328 119.24L246.736 119.206L246.741 121.978ZM265.033 136.276L265.039 139.048L251.403 139.077L251.362 119.197L264.746 119.169L264.751 121.941L254.503 121.962L254.515 127.618L263.391 127.6L263.396 130.204L254.52 130.222L254.533 136.298L265.033 136.276ZM270.234 139.038L270.193 119.158L278.845 119.14C279.741 119.138 280.562 119.323 281.31 119.695C282.057 120.067 282.702 120.56 283.245 121.175C283.806 121.79 284.237 122.479 284.537 123.244C284.856 124.009 285.016 124.792 285.018 125.595C285.02 126.491 284.854 127.341 284.519 128.144C284.204 128.929 283.757 129.611 283.18 130.191C282.602 130.771 281.922 131.192 281.138 131.455L285.83 139.005L282.302 139.013L277.975 132.106L273.355 132.115L273.37 139.031L270.234 139.038ZM273.35 129.343L278.838 129.332C279.416 129.331 279.929 129.162 280.377 128.825C280.824 128.469 281.178 128.011 281.438 127.45C281.698 126.89 281.827 126.274 281.826 125.602C281.825 124.911 281.674 124.295 281.374 123.755C281.074 123.195 280.681 122.748 280.195 122.413C279.709 122.078 279.196 121.911 278.654 121.912L273.334 121.923L273.35 129.343Z" fill="#181A31"/>
<path d="M143.817 145.496L146.757 145.49L149.235 152.233L151.713 145.48L154.653 145.474L151.255 154.329L154.239 161.631L160.393 145.378L163.837 145.371L155.73 165.268L153.014 165.274L149.272 156.377L145.538 165.289L142.794 165.295L134.633 145.431L138.049 145.424L144.299 161.652L147.251 154.337L143.817 145.496ZM168.184 165.242L168.143 145.362L171.279 145.356L171.32 165.236L168.184 165.242ZM192.325 148.084L185.717 148.098L185.753 165.206L182.589 165.212L182.553 148.105L175.917 148.118L175.912 145.346L192.32 145.312L192.325 148.084ZM213.27 145.269L213.311 165.149L210.147 165.156L210.129 156.392L200.105 156.412L200.123 165.176L196.987 165.183L196.946 145.303L200.082 145.296L200.099 153.612L210.123 153.592L210.106 145.276L213.27 145.269ZM242.338 147.981L235.73 147.995L235.765 165.103L232.601 165.109L232.566 148.001L225.93 148.015L225.924 145.243L242.332 145.209L242.338 147.981ZM254.6 165.204C253.275 165.207 252.042 164.938 250.902 164.399C249.781 163.86 248.79 163.116 247.93 162.166C247.088 161.215 246.423 160.134 245.935 158.922C245.466 157.709 245.23 156.422 245.227 155.059C245.224 153.715 245.455 152.445 245.919 151.25C246.383 150.035 247.044 148.97 247.901 148.054C248.757 147.118 249.755 146.388 250.892 145.863C252.048 145.32 253.308 145.046 254.67 145.044C256.556 145.04 258.143 145.438 259.433 146.238C260.723 147.019 261.705 148.062 262.379 149.368L259.975 151.109C259.431 150.027 258.683 149.217 257.73 148.677C256.777 148.138 255.731 147.869 254.592 147.872C253.342 147.874 252.25 148.222 251.318 148.915C250.387 149.588 249.67 150.477 249.168 151.579C248.666 152.681 248.417 153.867 248.419 155.137C248.422 156.481 248.705 157.703 249.267 158.803C249.829 159.884 250.587 160.751 251.54 161.402C252.512 162.053 253.614 162.378 254.846 162.375C256.9 162.371 258.746 161.387 260.384 159.424L260.38 157.324L256.208 157.332L256.203 155.008L263.007 154.994L263.028 165.046L260.396 165.052L260.391 162.588C258.733 164.327 256.803 165.199 254.6 165.204ZM267.284 154.958C267.281 153.744 267.494 152.549 267.921 151.372C268.347 150.195 268.971 149.13 269.79 148.176C270.628 147.223 271.634 146.465 272.809 145.902C274.003 145.321 275.365 145.029 276.895 145.026C278.687 145.022 280.238 145.42 281.546 146.22C282.854 147.02 283.827 148.063 284.464 149.35L282.004 151.007C281.629 150.205 281.152 149.581 280.572 149.134C280.011 148.669 279.394 148.343 278.722 148.158C278.068 147.954 277.424 147.853 276.789 147.854C275.744 147.856 274.83 148.073 274.047 148.504C273.264 148.916 272.602 149.468 272.062 150.16C271.541 150.851 271.141 151.627 270.863 152.486C270.603 153.345 270.474 154.204 270.476 155.063C270.479 156.351 270.752 157.554 271.296 158.673C271.858 159.773 272.616 160.668 273.569 161.357C274.541 162.027 275.653 162.36 276.903 162.358C277.538 162.356 278.2 162.243 278.891 162.018C279.581 161.792 280.215 161.446 280.792 160.978C281.37 160.491 281.835 159.856 282.188 159.071L284.796 160.549C284.387 161.54 283.745 162.381 282.869 163.073C282.012 163.766 281.042 164.291 279.96 164.647C278.897 165.004 277.842 165.184 276.797 165.186C275.397 165.189 274.118 164.902 272.959 164.326C271.801 163.731 270.8 162.949 269.958 161.98C269.116 160.992 268.461 159.892 267.992 158.68C267.522 157.449 267.287 156.208 267.284 154.958Z" fill="url(#paint0_linear)"/>
</g>
</g>
<defs>
<filter id="filter0_d" x="0" y="-16" width="316" height="316" filterUnits="userSpaceOnUse" color-interpolation-filters="sRGB">
<feFlood flood-opacity="0" result="BackgroundImageFix"/>
<feColorMatrix in="SourceAlpha" type="matrix" values="0 0 0 0 0 0 0 0 0 0 0 0 0 0 0 0 0 0 127 0"/>
<feMorphology radius="1" operator="dilate" in="SourceAlpha" result="effect1_dropShadow"/>
<feOffset/>
<feGaussianBlur stdDeviation="8.5"/>
<feColorMatrix type="matrix" values="0 0 0 0 0 0 0 0 0 0 0 0 0 0 0 0 0 0 0.67 0"/>
<feBlend mode="normal" in2="BackgroundImageFix" result="effect1_dropShadow"/>
<feBlend mode="normal" in="SourceGraphic" in2="effect1_dropShadow" result="shape"/>
</filter>
<linearGradient id="paint0_linear" x1="132.275" y1="146.584" x2="280.846" y2="182.831" gradientUnits="userSpaceOnUse">
<stop stop-color="#DCC342"/>
<stop offset="1" stop-color="#398EE3"/>
</linearGradient>
<clipPath id="clip0">
<rect x="18" y="2" width="280" height="280" rx="140" fill="white"/>
</clipPath>
</defs>
</svg>
