<svg width="100" height="100" viewBox="0 0 100 100" fill="none" xmlns="http://www.w3.org/2000/svg">
<path d="M41.239 34.2045L42.9546 34.7824C43.2609 35.2881 43.5672 35.7215 43.8736 36.0827C44.9764 37.383 46.2631 38.2499 47.7948 38.7556V39.9836C47.7948 42.2231 46.2631 44.1013 44.3637 44.1013H43.9961C43.6898 44.1013 43.4447 44.3903 43.4447 44.7515V47.4244C43.4447 47.7856 43.6898 48.0745 43.9961 48.0745H56.1274C56.4338 48.0745 56.6788 47.7856 56.6788 47.4244V44.7515C56.6788 44.3903 56.4338 44.1013 56.1274 44.1013H55.7598C53.8605 44.1013 52.3287 42.2953 52.3287 40.0559V38.8278C53.8605 38.3944 55.1471 37.5275 56.25 36.1549C56.5563 35.7937 56.8014 35.3603 57.169 34.8546L58.8845 34.3489C63.1734 32.9764 66.1756 28.353 66.1756 23.1517V20.9846C66.1756 20.2622 65.6854 19.612 65.0115 19.612H59.9874V17.3726C59.9874 16.6502 59.4972 16 58.8233 16H41.239C40.6263 16 40.0749 16.5779 40.0749 17.3726V19.6842H35.0508C34.4381 19.6842 33.8867 20.2622 33.8867 21.0568V23.0795C33.948 28.2808 36.8889 32.9041 41.239 34.2045ZM59.8648 23.224H63.0508C62.9896 26.4025 61.3353 29.2199 58.8845 30.448C59.681 27.4861 59.8648 24.5243 59.8648 23.224ZM40.1362 23.224C40.1974 24.5965 40.32 27.4861 41.1165 30.448C38.6657 29.2199 37.0114 26.4025 36.9502 23.224H40.1362Z" fill="white"/>
<path d="M76.3457 64.6176H63.663V54.4318C63.663 53.3482 62.9278 52.4813 62.0088 52.4813H37.9912C37.0722 52.4813 36.337 53.3482 36.337 54.4318V64.6176H23.6543C22.7352 64.6176 22 65.4845 22 66.5681V82.7498C22 83.8334 22.7352 84.7003 23.6543 84.7003H76.3457C77.2648 84.7003 78 83.8334 78 82.7498V66.5681C78 65.4845 77.2648 64.6176 76.3457 64.6176ZM56.8009 68.0851L54.2276 70.8303C54.105 70.9747 53.9825 71.2637 54.0438 71.4804L54.7177 75.5259C54.9015 76.465 53.9825 77.2596 53.3085 76.7539L50.3063 74.7312C50.1225 74.5867 49.8775 74.5867 49.7549 74.7312L46.7527 76.7539C46.0175 77.2596 45.1597 76.465 45.3435 75.5259L46.0175 71.4804C46.0788 71.2637 46.0175 70.9747 45.8337 70.8303L43.2604 68.0851C42.6477 67.435 42.9541 66.2069 43.8118 66.0624L47.2429 65.629C47.4267 65.629 47.6105 65.4845 47.733 65.1955L49.1422 61.4391C49.5098 60.5722 50.5514 60.5722 50.919 61.4391L52.3282 65.1955C52.3895 65.4123 52.5733 65.5567 52.8184 65.629L56.2495 66.0624C57.1072 66.2069 57.4136 67.435 56.8009 68.0851Z" fill="white"/>
</svg>
