<svg width="361" height="350" viewBox="0 0 361 350" fill="none" xmlns="http://www.w3.org/2000/svg">
<path fill-rule="evenodd" clip-rule="evenodd" d="M227.616 275.793C206.146 287.811 192.678 313.252 168.319 316.645C141.445 320.388 109.853 315.108 92.0987 294.67C74.5871 274.512 87.527 243.274 81.9003 217.167C76.3289 191.316 54.4242 169.106 59.4357 143.116C64.8717 114.924 84.2308 89.5085 109.249 75.3339C134.063 61.2751 163.859 66.707 192.334 67.8198C222.713 69.007 256.465 63.017 280.141 82.0121C304.092 101.228 310.888 134.726 313.832 165.296C316.514 193.149 313.106 223.154 295.861 245.256C280.151 265.391 249.909 263.315 227.616 275.793Z" fill="#99B9FF"/>
</svg>
