<svg width="316" height="316" viewBox="0 0 316 316" fill="none" xmlns="http://www.w3.org/2000/svg">
<g filter="url(#filter0_d)">
<g clip-path="url(#clip0)">
<rect x="18" y="18" width="280" height="280" rx="140" fill="white"/>
<path d="M188.044 240.408H158.092V279H102.508V240.408H-4.05212V203.256L86.3799 77.4H145.42L63.3399 195.192H104.236V160.92H158.092V195.192H188.044V240.408Z" fill="#BBBCC4" fill-opacity="0.62"/>
<path d="M132.794 142V122.12H141.446C142.342 122.12 143.164 122.307 143.91 122.68C144.657 123.053 145.301 123.548 145.842 124.164C146.402 124.78 146.832 125.471 147.13 126.236C147.448 127.001 147.606 127.785 147.606 128.588C147.606 129.484 147.438 130.333 147.102 131.136C146.785 131.92 146.337 132.601 145.758 133.18C145.18 133.759 144.498 134.179 143.714 134.44L148.39 142H144.862L140.55 135.084H135.93V142H132.794ZM135.93 132.312H141.418C141.997 132.312 142.51 132.144 142.958 131.808C143.406 131.453 143.761 130.996 144.022 130.436C144.284 129.876 144.414 129.26 144.414 128.588C144.414 127.897 144.265 127.281 143.966 126.74C143.668 126.18 143.276 125.732 142.79 125.396C142.305 125.06 141.792 124.892 141.25 124.892H135.93V132.312ZM166.902 139.228V142H153.266V122.12H166.65V124.892H156.402V130.548H165.278V133.152H156.402V139.228H166.902ZM177.837 122.12H180.805L188.533 142H185.229L183.129 136.596H175.457L173.385 142H170.053L177.837 122.12ZM182.513 134.272L179.321 125.564L176.017 134.272H182.513ZM192.952 142V122.12H200.008C202.154 122.12 203.937 122.568 205.356 123.464C206.793 124.341 207.876 125.536 208.604 127.048C209.332 128.541 209.696 130.203 209.696 132.032C209.696 134.048 209.294 135.803 208.492 137.296C207.689 138.789 206.56 139.947 205.104 140.768C203.666 141.589 201.968 142 200.008 142H192.952ZM206.504 132.032C206.504 130.632 206.242 129.4 205.72 128.336C205.216 127.272 204.478 126.432 203.508 125.816C202.556 125.2 201.389 124.892 200.008 124.892H196.088V139.228H200.008C201.408 139.228 202.584 138.911 203.536 138.276C204.506 137.641 205.244 136.783 205.748 135.7C206.252 134.617 206.504 133.395 206.504 132.032ZM228.698 122.12H231.666L239.394 142H236.09L233.99 136.596H226.318L224.246 142H220.914L228.698 122.12ZM233.374 134.272L230.182 125.564L226.878 134.272H233.374ZM246.948 127.944V142H243.812V122.12H246.388L257.644 136.484V122.148H260.808V142H258.064L246.948 127.944ZM267.237 142V122.12H274.293C276.44 122.12 278.222 122.568 279.641 123.464C281.078 124.341 282.161 125.536 282.889 127.048C283.617 128.541 283.981 130.203 283.981 132.032C283.981 134.048 283.58 135.803 282.777 137.296C281.974 138.789 280.845 139.947 279.389 140.768C277.952 141.589 276.253 142 274.293 142H267.237ZM280.789 132.032C280.789 130.632 280.528 129.4 280.005 128.336C279.501 127.272 278.764 126.432 277.793 125.816C276.841 125.2 275.674 124.892 274.293 124.892H270.373V139.228H274.293C275.693 139.228 276.869 138.911 277.821 138.276C278.792 137.641 279.529 136.783 280.033 135.7C280.537 134.617 280.789 133.395 280.789 132.032ZM90.7845 168V148.12H104.029V150.892H93.9205V156.828H102.377V159.432H93.9205V168H90.7845ZM116.891 168.14C115.473 168.14 114.175 167.86 112.999 167.3C111.842 166.74 110.843 165.984 110.003 165.032C109.163 164.061 108.51 162.979 108.043 161.784C107.595 160.571 107.371 159.329 107.371 158.06C107.371 156.735 107.614 155.475 108.099 154.28C108.585 153.067 109.257 151.993 110.115 151.06C110.974 150.108 111.982 149.361 113.139 148.82C114.315 148.26 115.585 147.98 116.947 147.98C118.366 147.98 119.654 148.269 120.811 148.848C121.987 149.427 122.986 150.201 123.807 151.172C124.647 152.143 125.291 153.225 125.739 154.42C126.206 155.615 126.439 156.837 126.439 158.088C126.439 159.413 126.197 160.683 125.711 161.896C125.245 163.091 124.582 164.164 123.723 165.116C122.865 166.049 121.847 166.787 120.671 167.328C119.514 167.869 118.254 168.14 116.891 168.14ZM110.563 158.06C110.563 159.311 110.825 160.496 111.347 161.616C111.87 162.717 112.598 163.613 113.531 164.304C114.483 164.976 115.613 165.312 116.919 165.312C117.909 165.312 118.795 165.107 119.579 164.696C120.363 164.285 121.026 163.735 121.567 163.044C122.109 162.335 122.519 161.551 122.799 160.692C123.079 159.833 123.219 158.956 123.219 158.06C123.219 156.809 122.958 155.633 122.435 154.532C121.931 153.431 121.203 152.544 120.251 151.872C119.299 151.181 118.189 150.836 116.919 150.836C115.911 150.836 115.015 151.041 114.231 151.452C113.447 151.863 112.785 152.413 112.243 153.104C111.702 153.795 111.282 154.569 110.983 155.428C110.703 156.287 110.563 157.164 110.563 158.06ZM131.646 168V148.12H134.782V165.228H145.45V168H131.646ZM149.957 168V148.12H153.093V165.228H163.761V168H149.957ZM176.01 168.14C174.591 168.14 173.294 167.86 172.118 167.3C170.96 166.74 169.962 165.984 169.122 165.032C168.282 164.061 167.628 162.979 167.162 161.784C166.714 160.571 166.49 159.329 166.49 158.06C166.49 156.735 166.732 155.475 167.218 154.28C167.703 153.067 168.375 151.993 169.234 151.06C170.092 150.108 171.1 149.361 172.258 148.82C173.434 148.26 174.703 147.98 176.066 147.98C177.484 147.98 178.772 148.269 179.93 148.848C181.106 149.427 182.104 150.201 182.926 151.172C183.766 152.143 184.41 153.225 184.858 154.42C185.324 155.615 185.558 156.837 185.558 158.088C185.558 159.413 185.315 160.683 184.83 161.896C184.363 163.091 183.7 164.164 182.842 165.116C181.983 166.049 180.966 166.787 179.79 167.328C178.632 167.869 177.372 168.14 176.01 168.14ZM169.682 158.06C169.682 159.311 169.943 160.496 170.466 161.616C170.988 162.717 171.716 163.613 172.65 164.304C173.602 164.976 174.731 165.312 176.038 165.312C177.027 165.312 177.914 165.107 178.698 164.696C179.482 164.285 180.144 163.735 180.686 163.044C181.227 162.335 181.638 161.551 181.918 160.692C182.198 159.833 182.338 158.956 182.338 158.06C182.338 156.809 182.076 155.633 181.554 154.532C181.05 153.431 180.322 152.544 179.37 151.872C178.418 151.181 177.307 150.836 176.038 150.836C175.03 150.836 174.134 151.041 173.35 151.452C172.566 151.863 171.903 152.413 171.362 153.104C170.82 153.795 170.4 154.569 170.102 155.428C169.822 156.287 169.682 157.164 169.682 158.06ZM197.055 148.204H199.995L202.459 154.952L204.951 148.204H207.891L204.475 157.052L207.443 164.36L213.631 148.12H217.075L208.927 168H206.211L202.487 159.096L198.735 168H195.991L187.871 148.12H191.287L197.503 164.36L200.471 157.052L197.055 148.204ZM243.014 150.892H236.406V168H233.242V150.892H226.606V148.12H243.014V150.892ZM263.964 148.12V168H260.8V159.236H250.776V168H247.64V148.12H250.776V156.436H260.8V148.12H263.964ZM284.045 165.228V168H270.409V148.12H283.793V150.892H273.545V156.548H282.421V159.152H273.545V165.228H284.045Z" fill="#181A31"/>
<path d="M191.521 194V174.12H200.173C201.069 174.12 201.89 174.307 202.637 174.68C203.384 175.053 204.028 175.548 204.569 176.164C205.129 176.78 205.558 177.471 205.857 178.236C206.174 179.001 206.333 179.785 206.333 180.588C206.333 181.484 206.165 182.333 205.829 183.136C205.512 183.92 205.064 184.601 204.485 185.18C203.906 185.759 203.225 186.179 202.441 186.44L207.117 194H203.589L199.277 187.084H194.657V194H191.521ZM194.657 184.312H200.145C200.724 184.312 201.237 184.144 201.685 183.808C202.133 183.453 202.488 182.996 202.749 182.436C203.01 181.876 203.141 181.26 203.141 180.588C203.141 179.897 202.992 179.281 202.693 178.74C202.394 178.18 202.002 177.732 201.517 177.396C201.032 177.06 200.518 176.892 199.977 176.892H194.657V184.312ZM220.253 194.14C218.685 194.14 217.351 193.869 216.249 193.328C215.148 192.787 214.261 192.049 213.589 191.116C212.917 190.164 212.432 189.1 212.133 187.924C211.835 186.729 211.685 185.488 211.685 184.2V174.12H214.821V184.2C214.821 185.115 214.915 186.001 215.101 186.86C215.288 187.7 215.587 188.456 215.997 189.128C216.408 189.8 216.959 190.332 217.649 190.724C218.359 191.116 219.227 191.312 220.253 191.312C221.299 191.312 222.167 191.116 222.857 190.724C223.567 190.313 224.127 189.772 224.537 189.1C224.948 188.409 225.237 187.644 225.405 186.804C225.592 185.964 225.685 185.096 225.685 184.2V174.12H228.849V184.2C228.849 185.563 228.681 186.841 228.345 188.036C228.028 189.231 227.524 190.285 226.833 191.2C226.161 192.115 225.275 192.833 224.173 193.356C223.091 193.879 221.784 194.14 220.253 194.14ZM234.98 194V174.12H238.116V191.228H248.784V194H234.98ZM266.928 191.228V194H253.292V174.12H266.676V176.892H256.428V182.548H265.304V185.152H256.428V191.228H266.928ZM283.883 178.796C283.64 178.516 283.239 178.227 282.679 177.928C282.137 177.611 281.503 177.34 280.775 177.116C280.047 176.892 279.291 176.78 278.507 176.78C277.181 176.78 276.201 177.023 275.567 177.508C274.951 177.993 274.643 178.665 274.643 179.524C274.643 180.159 274.82 180.663 275.175 181.036C275.529 181.391 276.071 181.699 276.799 181.96C277.527 182.203 278.441 182.455 279.543 182.716C280.887 183.033 282.044 183.416 283.015 183.864C284.004 184.293 284.76 184.872 285.283 185.6C285.824 186.328 286.095 187.289 286.095 188.484C286.095 189.847 285.768 190.948 285.115 191.788C284.461 192.628 283.575 193.244 282.455 193.636C281.353 194.009 280.14 194.196 278.815 194.196C277.303 194.196 275.837 193.963 274.419 193.496C273 193.029 271.731 192.367 270.611 191.508L272.039 188.82C272.356 189.137 272.86 189.501 273.551 189.912C274.241 190.304 275.044 190.649 275.959 190.948C276.892 191.228 277.863 191.368 278.871 191.368C280.103 191.368 281.055 191.153 281.727 190.724C282.399 190.276 282.735 189.641 282.735 188.82C282.735 188.148 282.511 187.616 282.063 187.224C281.633 186.813 281.008 186.477 280.187 186.216C279.384 185.936 278.413 185.647 277.275 185.348C275.968 185.012 274.876 184.629 273.999 184.2C273.121 183.771 272.459 183.229 272.011 182.576C271.581 181.923 271.367 181.073 271.367 180.028C271.367 178.721 271.684 177.62 272.319 176.724C272.953 175.809 273.812 175.128 274.895 174.68C275.996 174.213 277.228 173.98 278.591 173.98C279.935 173.98 281.176 174.195 282.315 174.624C283.453 175.053 284.452 175.585 285.311 176.22L283.883 178.796Z" fill="url(#paint0_linear)"/>
</g>
</g>
<defs>
<filter id="filter0_d" x="0" y="0" width="316" height="316" filterUnits="userSpaceOnUse" color-interpolation-filters="sRGB">
<feFlood flood-opacity="0" result="BackgroundImageFix"/>
<feColorMatrix in="SourceAlpha" type="matrix" values="0 0 0 0 0 0 0 0 0 0 0 0 0 0 0 0 0 0 127 0"/>
<feMorphology radius="1" operator="dilate" in="SourceAlpha" result="effect1_dropShadow"/>
<feOffset/>
<feGaussianBlur stdDeviation="8.5"/>
<feColorMatrix type="matrix" values="0 0 0 0 0 0 0 0 0 0 0 0 0 0 0 0 0 0 0.67 0"/>
<feBlend mode="normal" in2="BackgroundImageFix" result="effect1_dropShadow"/>
<feBlend mode="normal" in="SourceGraphic" in2="effect1_dropShadow" result="shape"/>
</filter>
<linearGradient id="paint0_linear" x1="105.5" y1="175.5" x2="282.5" y2="191" gradientUnits="userSpaceOnUse">
<stop stop-color="#DCC342"/>
<stop offset="1" stop-color="#398EE3"/>
</linearGradient>
<clipPath id="clip0">
<rect x="18" y="18" width="280" height="280" rx="140" fill="white"/>
</clipPath>
</defs>
</svg>
