<svg width="316" height="300" viewBox="0 0 316 300" fill="none" xmlns="http://www.w3.org/2000/svg">
<g filter="url(#filter0_d)">
<g clip-path="url(#clip0)">
<rect x="18" y="2" width="280" height="280" rx="140" fill="white"/>
<path d="M168.897 217.784V263H11.9369V227.288L87.3929 156.728C94.6889 149.816 99.5849 143.96 102.081 139.16C104.577 134.168 105.825 129.176 105.825 124.184C105.825 117.656 103.617 112.568 99.2009 108.92C94.7849 105.272 88.3529 103.448 79.9049 103.448C72.4169 103.448 65.5049 105.176 59.1689 108.632C53.0249 111.896 47.9369 116.696 43.9049 123.032L1.56887 99.416C9.44088 86.36 20.4809 76.088 34.6889 68.6C48.8969 61.112 65.6969 57.368 85.0889 57.368C100.449 57.368 113.985 59.864 125.697 64.856C137.601 69.848 146.817 77.048 153.345 86.456C160.065 95.672 163.425 106.424 163.425 118.712C163.425 129.656 161.025 140.024 156.225 149.816C151.617 159.416 142.593 170.36 129.153 182.648L91.1369 217.784H168.897Z" fill="#BBBCC4" fill-opacity="0.62"/>
<path d="M151.532 135.5C151.83 135.705 152.288 135.92 152.904 136.144C153.52 136.368 154.248 136.48 155.088 136.48C156.189 136.48 157.02 136.247 157.58 135.78C158.14 135.295 158.513 134.548 158.7 133.54C158.886 132.532 158.98 131.244 158.98 129.676V119.12H162.144V129.228C162.144 130.721 162.06 132.084 161.892 133.316C161.742 134.548 161.434 135.612 160.968 136.508C160.501 137.404 159.801 138.095 158.868 138.58C157.953 139.065 156.721 139.308 155.172 139.308C154.238 139.308 153.417 139.205 152.708 139C151.998 138.795 151.354 138.487 150.776 138.076L151.532 135.5ZM176.628 139.14C175.209 139.14 173.912 138.86 172.736 138.3C171.578 137.74 170.58 136.984 169.74 136.032C168.9 135.061 168.246 133.979 167.78 132.784C167.332 131.571 167.108 130.329 167.108 129.06C167.108 127.735 167.35 126.475 167.836 125.28C168.321 124.067 168.993 122.993 169.852 122.06C170.71 121.108 171.718 120.361 172.876 119.82C174.052 119.26 175.321 118.98 176.684 118.98C178.102 118.98 179.39 119.269 180.548 119.848C181.724 120.427 182.722 121.201 183.544 122.172C184.384 123.143 185.028 124.225 185.476 125.42C185.942 126.615 186.176 127.837 186.176 129.088C186.176 130.413 185.933 131.683 185.448 132.896C184.981 134.091 184.318 135.164 183.46 136.116C182.601 137.049 181.584 137.787 180.408 138.328C179.25 138.869 177.99 139.14 176.628 139.14ZM170.3 129.06C170.3 130.311 170.561 131.496 171.084 132.616C171.606 133.717 172.334 134.613 173.268 135.304C174.22 135.976 175.349 136.312 176.656 136.312C177.645 136.312 178.532 136.107 179.316 135.696C180.1 135.285 180.762 134.735 181.304 134.044C181.845 133.335 182.256 132.551 182.536 131.692C182.816 130.833 182.956 129.956 182.956 129.06C182.956 127.809 182.694 126.633 182.172 125.532C181.668 124.431 180.94 123.544 179.988 122.872C179.036 122.181 177.925 121.836 176.656 121.836C175.648 121.836 174.752 122.041 173.968 122.452C173.184 122.863 172.521 123.413 171.98 124.104C171.438 124.795 171.018 125.569 170.72 126.428C170.44 127.287 170.3 128.164 170.3 129.06ZM191.382 139V119.12H194.518V139H191.382ZM204.107 124.944V139H200.971V119.12H203.547L214.803 133.484V119.148H217.967V139H215.223L204.107 124.944ZM247.014 121.892H240.406V139H237.242V121.892H230.606V119.12H247.014V121.892ZM267.964 119.12V139H264.8V130.236H254.776V139H251.64V119.12H254.776V127.436H264.8V119.12H267.964ZM288.045 136.228V139H274.409V119.12H287.793V121.892H277.545V127.548H286.421V130.152H277.545V136.228H288.045Z" fill="#181A31"/>
<path d="M158.187 165V145.12H165.243C167.39 145.12 169.172 145.568 170.591 146.464C172.028 147.341 173.111 148.536 173.839 150.048C174.567 151.541 174.931 153.203 174.931 155.032C174.931 157.048 174.53 158.803 173.727 160.296C172.924 161.789 171.795 162.947 170.339 163.768C168.902 164.589 167.203 165 165.243 165H158.187ZM171.739 155.032C171.739 153.632 171.478 152.4 170.955 151.336C170.451 150.272 169.714 149.432 168.743 148.816C167.791 148.2 166.624 147.892 165.243 147.892H161.323V162.228H165.243C166.643 162.228 167.819 161.911 168.771 161.276C169.742 160.641 170.479 159.783 170.983 158.7C171.487 157.617 171.739 156.395 171.739 155.032ZM180.19 165V145.12H183.326V165H180.19ZM201.539 149.796C201.296 149.516 200.895 149.227 200.335 148.928C199.794 148.611 199.159 148.34 198.431 148.116C197.703 147.892 196.947 147.78 196.163 147.78C194.838 147.78 193.858 148.023 193.223 148.508C192.607 148.993 192.299 149.665 192.299 150.524C192.299 151.159 192.476 151.663 192.831 152.036C193.186 152.391 193.727 152.699 194.455 152.96C195.183 153.203 196.098 153.455 197.199 153.716C198.543 154.033 199.7 154.416 200.671 154.864C201.66 155.293 202.416 155.872 202.939 156.6C203.48 157.328 203.751 158.289 203.751 159.484C203.751 160.847 203.424 161.948 202.771 162.788C202.118 163.628 201.231 164.244 200.111 164.636C199.01 165.009 197.796 165.196 196.471 165.196C194.959 165.196 193.494 164.963 192.075 164.496C190.656 164.029 189.387 163.367 188.267 162.508L189.695 159.82C190.012 160.137 190.516 160.501 191.207 160.912C191.898 161.304 192.7 161.649 193.615 161.948C194.548 162.228 195.519 162.368 196.527 162.368C197.759 162.368 198.711 162.153 199.383 161.724C200.055 161.276 200.391 160.641 200.391 159.82C200.391 159.148 200.167 158.616 199.719 158.224C199.29 157.813 198.664 157.477 197.843 157.216C197.04 156.936 196.07 156.647 194.931 156.348C193.624 156.012 192.532 155.629 191.655 155.2C190.778 154.771 190.115 154.229 189.667 153.576C189.238 152.923 189.023 152.073 189.023 151.028C189.023 149.721 189.34 148.62 189.975 147.724C190.61 146.809 191.468 146.128 192.551 145.68C193.652 145.213 194.884 144.98 196.247 144.98C197.591 144.98 198.832 145.195 199.971 145.624C201.11 146.053 202.108 146.585 202.967 147.22L201.539 149.796ZM207.596 154.92C207.596 153.707 207.811 152.512 208.24 151.336C208.669 150.16 209.295 149.096 210.116 148.144C210.956 147.192 211.964 146.436 213.14 145.876C214.335 145.297 215.697 145.008 217.228 145.008C219.02 145.008 220.569 145.409 221.876 146.212C223.183 147.015 224.153 148.06 224.788 149.348L222.324 151C221.951 150.197 221.475 149.572 220.896 149.124C220.336 148.657 219.72 148.331 219.048 148.144C218.395 147.939 217.751 147.836 217.116 147.836C216.071 147.836 215.156 148.051 214.372 148.48C213.588 148.891 212.925 149.441 212.384 150.132C211.861 150.823 211.46 151.597 211.18 152.456C210.919 153.315 210.788 154.173 210.788 155.032C210.788 156.32 211.059 157.524 211.6 158.644C212.16 159.745 212.916 160.641 213.868 161.332C214.839 162.004 215.949 162.34 217.2 162.34C217.835 162.34 218.497 162.228 219.188 162.004C219.879 161.78 220.513 161.435 221.092 160.968C221.671 160.483 222.137 159.848 222.492 159.064L225.096 160.548C224.685 161.537 224.041 162.377 223.164 163.068C222.305 163.759 221.335 164.281 220.252 164.636C219.188 164.991 218.133 165.168 217.088 165.168C215.688 165.168 214.409 164.879 213.252 164.3C212.095 163.703 211.096 162.919 210.256 161.948C209.416 160.959 208.763 159.857 208.296 158.644C207.829 157.412 207.596 156.171 207.596 154.92ZM237.971 165.14C236.552 165.14 235.255 164.86 234.079 164.3C232.921 163.74 231.923 162.984 231.083 162.032C230.243 161.061 229.589 159.979 229.123 158.784C228.675 157.571 228.451 156.329 228.451 155.06C228.451 153.735 228.693 152.475 229.179 151.28C229.664 150.067 230.336 148.993 231.195 148.06C232.053 147.108 233.061 146.361 234.219 145.82C235.395 145.26 236.664 144.98 238.027 144.98C239.445 144.98 240.733 145.269 241.891 145.848C243.067 146.427 244.065 147.201 244.887 148.172C245.727 149.143 246.371 150.225 246.819 151.42C247.285 152.615 247.519 153.837 247.519 155.088C247.519 156.413 247.276 157.683 246.791 158.896C246.324 160.091 245.661 161.164 244.803 162.116C243.944 163.049 242.927 163.787 241.751 164.328C240.593 164.869 239.333 165.14 237.971 165.14ZM231.643 155.06C231.643 156.311 231.904 157.496 232.427 158.616C232.949 159.717 233.677 160.613 234.611 161.304C235.563 161.976 236.692 162.312 237.999 162.312C238.988 162.312 239.875 162.107 240.659 161.696C241.443 161.285 242.105 160.735 242.647 160.044C243.188 159.335 243.599 158.551 243.879 157.692C244.159 156.833 244.299 155.956 244.299 155.06C244.299 153.809 244.037 152.633 243.515 151.532C243.011 150.431 242.283 149.544 241.331 148.872C240.379 148.181 239.268 147.836 237.999 147.836C236.991 147.836 236.095 148.041 235.311 148.452C234.527 148.863 233.864 149.413 233.323 150.104C232.781 150.795 232.361 151.569 232.063 152.428C231.783 153.287 231.643 154.164 231.643 155.06ZM252.725 165V145.12H261.377C262.273 145.12 263.095 145.307 263.841 145.68C264.588 146.053 265.232 146.548 265.773 147.164C266.333 147.78 266.763 148.471 267.061 149.236C267.379 150.001 267.537 150.785 267.537 151.588C267.537 152.484 267.369 153.333 267.033 154.136C266.716 154.92 266.268 155.601 265.689 156.18C265.111 156.759 264.429 157.179 263.645 157.44L268.321 165H264.793L260.481 158.084H255.861V165H252.725ZM255.861 155.312H261.349C261.928 155.312 262.441 155.144 262.889 154.808C263.337 154.453 263.692 153.996 263.953 153.436C264.215 152.876 264.345 152.26 264.345 151.588C264.345 150.897 264.196 150.281 263.897 149.74C263.599 149.18 263.207 148.732 262.721 148.396C262.236 148.06 261.723 147.892 261.181 147.892H255.861V155.312ZM273.197 165V145.12H280.253C282.4 145.12 284.182 145.568 285.601 146.464C287.038 147.341 288.121 148.536 288.849 150.048C289.577 151.541 289.941 153.203 289.941 155.032C289.941 157.048 289.54 158.803 288.737 160.296C287.934 161.789 286.805 162.947 285.349 163.768C283.912 164.589 282.213 165 280.253 165H273.197ZM286.749 155.032C286.749 153.632 286.488 152.4 285.965 151.336C285.461 150.272 284.724 149.432 283.753 148.816C282.801 148.2 281.634 147.892 280.253 147.892H276.333V162.228H280.253C281.653 162.228 282.829 161.911 283.781 161.276C284.752 160.641 285.489 159.783 285.993 158.7C286.497 157.617 286.749 156.395 286.749 155.032Z" fill="#7289D9"/>
</g>
</g>
<defs>
<filter id="filter0_d" x="0" y="-16" width="316" height="316" filterUnits="userSpaceOnUse" color-interpolation-filters="sRGB">
<feFlood flood-opacity="0" result="BackgroundImageFix"/>
<feColorMatrix in="SourceAlpha" type="matrix" values="0 0 0 0 0 0 0 0 0 0 0 0 0 0 0 0 0 0 127 0"/>
<feMorphology radius="1" operator="dilate" in="SourceAlpha" result="effect1_dropShadow"/>
<feOffset/>
<feGaussianBlur stdDeviation="8.5"/>
<feColorMatrix type="matrix" values="0 0 0 0 0 0 0 0 0 0 0 0 0 0 0 0 0 0 0.67 0"/>
<feBlend mode="normal" in2="BackgroundImageFix" result="effect1_dropShadow"/>
<feBlend mode="normal" in="SourceGraphic" in2="effect1_dropShadow" result="shape"/>
</filter>
<clipPath id="clip0">
<rect x="18" y="2" width="280" height="280" rx="140" fill="white"/>
</clipPath>
</defs>
</svg>
