<svg width="316" height="316" viewBox="0 0 316 316" fill="none" xmlns="http://www.w3.org/2000/svg">
<g filter="url(#filter0_d)">
<g clip-path="url(#clip0)">
<rect x="18" y="18" width="280" height="280" rx="140" fill="white"/>
<path d="M115.418 158.04C132.122 161.496 144.89 168.408 153.722 178.776C162.746 188.952 167.258 201.336 167.258 215.928C167.258 227.832 163.994 238.872 157.466 249.048C151.13 259.224 141.338 267.48 128.09 273.816C115.034 279.96 98.8104 283.032 79.4184 283.032C65.2104 283.032 51.0984 281.304 37.0824 277.848C23.2584 274.392 11.2584 269.496 1.08237 263.16L21.8184 220.248C29.6904 225.624 38.5224 229.752 48.3144 232.632C58.2984 235.512 68.0904 236.952 77.6904 236.952C87.4824 236.952 95.2584 235.128 101.018 231.48C106.778 227.832 109.658 222.648 109.658 215.928C109.658 202.872 99.3864 196.344 78.8424 196.344H54.9384V160.344L90.9384 121.464H11.4504V77.4H157.178V113.112L115.418 158.04Z" fill="#BBBCC4" fill-opacity="0.62"/>
<path d="M136.218 144.92C136.218 143.707 136.433 142.512 136.862 141.336C137.291 140.16 137.917 139.096 138.738 138.144C139.578 137.192 140.586 136.436 141.762 135.876C142.957 135.297 144.319 135.008 145.85 135.008C147.642 135.008 149.191 135.409 150.498 136.212C151.805 137.015 152.775 138.06 153.41 139.348L150.946 141C150.573 140.197 150.097 139.572 149.518 139.124C148.958 138.657 148.342 138.331 147.67 138.144C147.017 137.939 146.373 137.836 145.738 137.836C144.693 137.836 143.778 138.051 142.994 138.48C142.21 138.891 141.547 139.441 141.006 140.132C140.483 140.823 140.082 141.597 139.802 142.456C139.541 143.315 139.41 144.173 139.41 145.032C139.41 146.32 139.681 147.524 140.222 148.644C140.782 149.745 141.538 150.641 142.49 151.332C143.461 152.004 144.571 152.34 145.822 152.34C146.457 152.34 147.119 152.228 147.81 152.004C148.501 151.78 149.135 151.435 149.714 150.968C150.293 150.483 150.759 149.848 151.114 149.064L153.718 150.548C153.307 151.537 152.663 152.377 151.786 153.068C150.927 153.759 149.957 154.281 148.874 154.636C147.81 154.991 146.755 155.168 145.71 155.168C144.31 155.168 143.031 154.879 141.874 154.3C140.717 153.703 139.718 152.919 138.878 151.948C138.038 150.959 137.385 149.857 136.918 148.644C136.451 147.412 136.218 146.171 136.218 144.92ZM174.903 135.12V155H171.739V146.236H161.715V155H158.579V135.12H161.715V143.436H171.739V135.12H174.903ZM189.607 155.14C188.189 155.14 186.891 154.86 185.715 154.3C184.558 153.74 183.559 152.984 182.719 152.032C181.879 151.061 181.226 149.979 180.759 148.784C180.311 147.571 180.087 146.329 180.087 145.06C180.087 143.735 180.33 142.475 180.815 141.28C181.301 140.067 181.973 138.993 182.831 138.06C183.69 137.108 184.698 136.361 185.855 135.82C187.031 135.26 188.301 134.98 189.663 134.98C191.082 134.98 192.37 135.269 193.527 135.848C194.703 136.427 195.702 137.201 196.523 138.172C197.363 139.143 198.007 140.225 198.455 141.42C198.922 142.615 199.155 143.837 199.155 145.088C199.155 146.413 198.913 147.683 198.427 148.896C197.961 150.091 197.298 151.164 196.439 152.116C195.581 153.049 194.563 153.787 193.387 154.328C192.23 154.869 190.97 155.14 189.607 155.14ZM183.279 145.06C183.279 146.311 183.541 147.496 184.063 148.616C184.586 149.717 185.314 150.613 186.247 151.304C187.199 151.976 188.329 152.312 189.635 152.312C190.625 152.312 191.511 152.107 192.295 151.696C193.079 151.285 193.742 150.735 194.283 150.044C194.825 149.335 195.235 148.551 195.515 147.692C195.795 146.833 195.935 145.956 195.935 145.06C195.935 143.809 195.674 142.633 195.151 141.532C194.647 140.431 193.919 139.544 192.967 138.872C192.015 138.181 190.905 137.836 189.635 137.836C188.627 137.836 187.731 138.041 186.947 138.452C186.163 138.863 185.501 139.413 184.959 140.104C184.418 140.795 183.998 141.569 183.699 142.428C183.419 143.287 183.279 144.164 183.279 145.06ZM212.622 155.14C211.203 155.14 209.906 154.86 208.73 154.3C207.573 153.74 206.574 152.984 205.734 152.032C204.894 151.061 204.241 149.979 203.774 148.784C203.326 147.571 203.102 146.329 203.102 145.06C203.102 143.735 203.345 142.475 203.83 141.28C204.315 140.067 204.987 138.993 205.846 138.06C206.705 137.108 207.713 136.361 208.87 135.82C210.046 135.26 211.315 134.98 212.678 134.98C214.097 134.98 215.385 135.269 216.542 135.848C217.718 136.427 218.717 137.201 219.538 138.172C220.378 139.143 221.022 140.225 221.47 141.42C221.937 142.615 222.17 143.837 222.17 145.088C222.17 146.413 221.927 147.683 221.442 148.896C220.975 150.091 220.313 151.164 219.454 152.116C218.595 153.049 217.578 153.787 216.402 154.328C215.245 154.869 213.985 155.14 212.622 155.14ZM206.294 145.06C206.294 146.311 206.555 147.496 207.078 148.616C207.601 149.717 208.329 150.613 209.262 151.304C210.214 151.976 211.343 152.312 212.65 152.312C213.639 152.312 214.526 152.107 215.31 151.696C216.094 151.285 216.757 150.735 217.298 150.044C217.839 149.335 218.25 148.551 218.53 147.692C218.81 146.833 218.95 145.956 218.95 145.06C218.95 143.809 218.689 142.633 218.166 141.532C217.662 140.431 216.934 139.544 215.982 138.872C215.03 138.181 213.919 137.836 212.65 137.836C211.642 137.836 210.746 138.041 209.962 138.452C209.178 138.863 208.515 139.413 207.974 140.104C207.433 140.795 207.013 141.569 206.714 142.428C206.434 143.287 206.294 144.164 206.294 145.06ZM239.109 139.796C238.867 139.516 238.465 139.227 237.905 138.928C237.364 138.611 236.729 138.34 236.001 138.116C235.273 137.892 234.517 137.78 233.733 137.78C232.408 137.78 231.428 138.023 230.793 138.508C230.177 138.993 229.869 139.665 229.869 140.524C229.869 141.159 230.047 141.663 230.401 142.036C230.756 142.391 231.297 142.699 232.025 142.96C232.753 143.203 233.668 143.455 234.769 143.716C236.113 144.033 237.271 144.416 238.241 144.864C239.231 145.293 239.987 145.872 240.509 146.6C241.051 147.328 241.321 148.289 241.321 149.484C241.321 150.847 240.995 151.948 240.341 152.788C239.688 153.628 238.801 154.244 237.681 154.636C236.58 155.009 235.367 155.196 234.041 155.196C232.529 155.196 231.064 154.963 229.645 154.496C228.227 154.029 226.957 153.367 225.837 152.508L227.265 149.82C227.583 150.137 228.087 150.501 228.777 150.912C229.468 151.304 230.271 151.649 231.185 151.948C232.119 152.228 233.089 152.368 234.097 152.368C235.329 152.368 236.281 152.153 236.953 151.724C237.625 151.276 237.961 150.641 237.961 149.82C237.961 149.148 237.737 148.616 237.289 148.224C236.86 147.813 236.235 147.477 235.413 147.216C234.611 146.936 233.64 146.647 232.501 146.348C231.195 146.012 230.103 145.629 229.225 145.2C228.348 144.771 227.685 144.229 227.237 143.576C226.808 142.923 226.593 142.073 226.593 141.028C226.593 139.721 226.911 138.62 227.545 137.724C228.18 136.809 229.039 136.128 230.121 135.68C231.223 135.213 232.455 134.98 233.817 134.98C235.161 134.98 236.403 135.195 237.541 135.624C238.68 136.053 239.679 136.585 240.537 137.22L239.109 139.796ZM260.062 152.228V155H246.426V135.12H259.81V137.892H249.562V143.548H258.438V146.152H249.562V152.228H260.062ZM279 135.12H281.968L289.696 155H286.392L284.292 149.596H276.62L274.548 155H271.216L279 135.12ZM283.676 147.272L280.484 138.564L277.18 147.272H283.676ZM221.744 181V166.832L215.892 177.584H214.044L208.164 166.832V181H205.028V161.12H208.388L214.968 173.272L221.548 161.12H224.908V181H221.744ZM239.611 181.14C238.193 181.14 236.895 180.86 235.719 180.3C234.562 179.74 233.563 178.984 232.723 178.032C231.883 177.061 231.23 175.979 230.763 174.784C230.315 173.571 230.091 172.329 230.091 171.06C230.091 169.735 230.334 168.475 230.819 167.28C231.305 166.067 231.977 164.993 232.835 164.06C233.694 163.108 234.702 162.361 235.859 161.82C237.035 161.26 238.305 160.98 239.667 160.98C241.086 160.98 242.374 161.269 243.531 161.848C244.707 162.427 245.706 163.201 246.527 164.172C247.367 165.143 248.011 166.225 248.459 167.42C248.926 168.615 249.159 169.837 249.159 171.088C249.159 172.413 248.917 173.683 248.431 174.896C247.965 176.091 247.302 177.164 246.443 178.116C245.585 179.049 244.567 179.787 243.391 180.328C242.234 180.869 240.974 181.14 239.611 181.14ZM233.283 171.06C233.283 172.311 233.545 173.496 234.067 174.616C234.59 175.717 235.318 176.613 236.251 177.304C237.203 177.976 238.333 178.312 239.639 178.312C240.629 178.312 241.515 178.107 242.299 177.696C243.083 177.285 243.746 176.735 244.287 176.044C244.829 175.335 245.239 174.551 245.519 173.692C245.799 172.833 245.939 171.956 245.939 171.06C245.939 169.809 245.678 168.633 245.155 167.532C244.651 166.431 243.923 165.544 242.971 164.872C242.019 164.181 240.909 163.836 239.639 163.836C238.631 163.836 237.735 164.041 236.951 164.452C236.167 164.863 235.505 165.413 234.963 166.104C234.422 166.795 234.002 167.569 233.703 168.428C233.423 169.287 233.283 170.164 233.283 171.06ZM254.366 181V161.12H261.422C263.569 161.12 265.351 161.568 266.77 162.464C268.207 163.341 269.29 164.536 270.018 166.048C270.746 167.541 271.11 169.203 271.11 171.032C271.11 173.048 270.709 174.803 269.906 176.296C269.103 177.789 267.974 178.947 266.518 179.768C265.081 180.589 263.382 181 261.422 181H254.366ZM267.918 171.032C267.918 169.632 267.657 168.4 267.134 167.336C266.63 166.272 265.893 165.432 264.922 164.816C263.97 164.2 262.803 163.892 261.422 163.892H257.502V178.228H261.422C262.822 178.228 263.998 177.911 264.95 177.276C265.921 176.641 266.658 175.783 267.162 174.7C267.666 173.617 267.918 172.395 267.918 171.032ZM290.005 178.228V181H276.369V161.12H289.753V163.892H279.505V169.548H288.381V172.152H279.505V178.228H290.005Z" fill="#181A31"/>
<path d="M122.226 181.14C120.901 181.14 119.669 180.869 118.53 180.328C117.41 179.787 116.421 179.04 115.562 178.088C114.722 177.136 114.059 176.053 113.574 174.84C113.107 173.627 112.874 172.339 112.874 170.976C112.874 169.632 113.107 168.363 113.574 167.168C114.041 165.955 114.703 164.891 115.562 163.976C116.421 163.043 117.419 162.315 118.558 161.792C119.715 161.251 120.975 160.98 122.338 160.98C124.223 160.98 125.81 161.381 127.098 162.184C128.386 162.968 129.366 164.013 130.038 165.32L127.63 167.056C127.089 165.973 126.342 165.161 125.39 164.62C124.438 164.079 123.393 163.808 122.254 163.808C121.003 163.808 119.911 164.153 118.978 164.844C118.045 165.516 117.326 166.403 116.822 167.504C116.318 168.605 116.066 169.791 116.066 171.06C116.066 172.404 116.346 173.627 116.906 174.728C117.466 175.811 118.222 176.679 119.174 177.332C120.145 177.985 121.246 178.312 122.478 178.312C124.531 178.312 126.379 177.332 128.022 175.372V173.272H123.85V170.948H130.654V181H128.022V178.536C126.361 180.272 124.429 181.14 122.226 181.14ZM141.931 161.12H144.899L152.627 181H149.323L147.223 175.596H139.551L137.479 181H134.147L141.931 161.12ZM146.607 173.272L143.415 164.564L140.111 173.272H146.607ZM173.762 181V166.832L167.91 177.584H166.062L160.182 166.832V181H157.046V161.12H160.406L166.986 173.272L173.566 161.12H176.926V181H173.762ZM197.005 178.228V181H183.369V161.12H196.753V163.892H186.505V169.548H195.381V172.152H186.505V178.228H197.005Z" fill="url(#paint0_linear)"/>
</g>
</g>
<defs>
<filter id="filter0_d" x="0" y="0" width="316" height="316" filterUnits="userSpaceOnUse" color-interpolation-filters="sRGB">
<feFlood flood-opacity="0" result="BackgroundImageFix"/>
<feColorMatrix in="SourceAlpha" type="matrix" values="0 0 0 0 0 0 0 0 0 0 0 0 0 0 0 0 0 0 127 0"/>
<feMorphology radius="1" operator="dilate" in="SourceAlpha" result="effect1_dropShadow"/>
<feOffset/>
<feGaussianBlur stdDeviation="8.5"/>
<feColorMatrix type="matrix" values="0 0 0 0 0 0 0 0 0 0 0 0 0 0 0 0 0 0 0.67 0"/>
<feBlend mode="normal" in2="BackgroundImageFix" result="effect1_dropShadow"/>
<feBlend mode="normal" in="SourceGraphic" in2="effect1_dropShadow" result="shape"/>
</filter>
<linearGradient id="paint0_linear" x1="114" y1="161.5" x2="200" y2="181" gradientUnits="userSpaceOnUse">
<stop stop-color="#DCC342"/>
<stop offset="1" stop-color="#398EE3"/>
</linearGradient>
<clipPath id="clip0">
<rect x="18" y="18" width="280" height="280" rx="140" fill="white"/>
</clipPath>
</defs>
</svg>
