<svg width="316" height="316" viewBox="0 0 316 316" fill="none" xmlns="http://www.w3.org/2000/svg">
<g filter="url(#filter0_d)">
<g clip-path="url(#clip0)">
<rect x="18" y="18" width="280" height="280" rx="140" fill="white"/>
<path d="M87.2793 150.84C115.503 150.84 136.335 156.6 149.775 168.12C163.407 179.64 170.223 195 170.223 214.2C170.223 226.68 166.959 238.2 160.431 248.76C154.095 259.128 144.303 267.48 131.055 273.816C117.999 279.96 101.775 283.032 82.3833 283.032C68.1753 283.032 54.0633 281.304 40.0472 277.848C26.2233 274.392 14.3193 269.496 4.33525 263.16L24.7833 220.248C32.8473 225.624 41.6793 229.752 51.2793 232.632C61.0713 235.512 70.8633 236.952 80.6553 236.952C90.4473 236.952 98.2233 235.128 103.983 231.48C109.935 227.64 112.911 222.36 112.911 215.64C112.911 208.92 110.031 203.832 104.271 200.376C98.5113 196.92 88.3353 195.192 73.7433 195.192H19.0233L29.1033 77.4H157.551V121.464H76.3353L73.7433 150.84H87.2793Z" fill="#BBBCC4" fill-opacity="0.62"/>
<path d="M245.014 150.892H238.406V168H235.242V150.892H228.606V148.12H245.014V150.892ZM265.964 148.12V168H262.8V159.236H252.776V168H249.64V148.12H252.776V156.436H262.8V148.12H265.964ZM286.045 165.228V168H272.409V148.12H285.793V150.892H275.545V156.548H284.421V159.152H275.545V165.228H286.045ZM117.623 191.228V194H103.987V174.12H117.371V176.892H107.123V182.548H115.999V185.152H107.123V191.228H117.623ZM124.078 174.12L129.566 181.932L135.054 174.12H138.526L131.358 184.2L138.302 194H134.83L129.566 186.468L124.302 194H120.802L127.746 184.2L120.578 174.12H124.078ZM142.715 194V174.12H151.059C151.955 174.12 152.777 174.307 153.523 174.68C154.289 175.053 154.942 175.548 155.483 176.164C156.043 176.78 156.473 177.471 156.771 178.236C157.07 179.001 157.219 179.785 157.219 180.588C157.219 181.708 156.967 182.763 156.463 183.752C155.959 184.741 155.259 185.544 154.363 186.16C153.467 186.776 152.422 187.084 151.227 187.084H145.851V194H142.715ZM145.851 184.312H151.031C151.909 184.312 152.627 183.957 153.187 183.248C153.747 182.539 154.027 181.652 154.027 180.588C154.027 179.86 153.878 179.225 153.579 178.684C153.281 178.124 152.889 177.685 152.403 177.368C151.937 177.051 151.423 176.892 150.863 176.892H145.851V184.312ZM175.757 191.228V194H162.121V174.12H175.505V176.892H165.257V182.548H174.133V185.152H165.257V191.228H175.757ZM180.952 194V174.12H189.604C190.5 174.12 191.321 174.307 192.068 174.68C192.814 175.053 193.458 175.548 194 176.164C194.56 176.78 194.989 177.471 195.288 178.236C195.605 179.001 195.764 179.785 195.764 180.588C195.764 181.484 195.596 182.333 195.26 183.136C194.942 183.92 194.494 184.601 193.916 185.18C193.337 185.759 192.656 186.179 191.872 186.44L196.548 194H193.02L188.708 187.084H184.088V194H180.952ZM184.088 184.312H189.576C190.154 184.312 190.668 184.144 191.116 183.808C191.564 183.453 191.918 182.996 192.18 182.436C192.441 181.876 192.572 181.26 192.572 180.588C192.572 179.897 192.422 179.281 192.124 178.74C191.825 178.18 191.433 177.732 190.948 177.396C190.462 177.06 189.949 176.892 189.408 176.892H184.088V184.312ZM201.423 194V174.12H204.559V194H201.423ZM224.648 191.228V194H211.012V174.12H224.396V176.892H214.148V182.548H223.024V185.152H214.148V191.228H224.648ZM232.979 179.944V194H229.843V174.12H232.419L243.675 188.484V174.148H246.839V194H244.095L232.979 179.944ZM252.008 183.92C252.008 182.707 252.223 181.512 252.652 180.336C253.082 179.16 253.707 178.096 254.528 177.144C255.368 176.192 256.376 175.436 257.552 174.876C258.747 174.297 260.11 174.008 261.64 174.008C263.432 174.008 264.982 174.409 266.288 175.212C267.595 176.015 268.566 177.06 269.2 178.348L266.736 180C266.363 179.197 265.887 178.572 265.308 178.124C264.748 177.657 264.132 177.331 263.46 177.144C262.807 176.939 262.163 176.836 261.528 176.836C260.483 176.836 259.568 177.051 258.784 177.48C258 177.891 257.338 178.441 256.796 179.132C256.274 179.823 255.872 180.597 255.592 181.456C255.331 182.315 255.2 183.173 255.2 184.032C255.2 185.32 255.471 186.524 256.012 187.644C256.572 188.745 257.328 189.641 258.28 190.332C259.251 191.004 260.362 191.34 261.612 191.34C262.247 191.34 262.91 191.228 263.6 191.004C264.291 190.78 264.926 190.435 265.504 189.968C266.083 189.483 266.55 188.848 266.904 188.064L269.508 189.548C269.098 190.537 268.454 191.377 267.576 192.068C266.718 192.759 265.747 193.281 264.664 193.636C263.6 193.991 262.546 194.168 261.5 194.168C260.1 194.168 258.822 193.879 257.664 193.3C256.507 192.703 255.508 191.919 254.668 190.948C253.828 189.959 253.175 188.857 252.708 187.644C252.242 186.412 252.008 185.171 252.008 183.92ZM288.005 191.228V194H274.369V174.12H287.753V176.892H277.505V182.548H286.381V185.152H277.505V191.228H288.005Z" fill="#181A31"/>
<path d="M138.884 165.228V168H125.248V148.12H138.632V150.892H128.384V156.548H137.26V159.152H128.384V165.228H138.884ZM147.215 153.944V168H144.079V148.12H146.655L157.911 162.484V148.148H161.075V168H158.331L147.215 153.944ZM166.3 164.5C166.598 164.705 167.056 164.92 167.672 165.144C168.288 165.368 169.016 165.48 169.856 165.48C170.957 165.48 171.788 165.247 172.348 164.78C172.908 164.295 173.281 163.548 173.468 162.54C173.654 161.532 173.748 160.244 173.748 158.676V148.12H176.912V158.228C176.912 159.721 176.828 161.084 176.66 162.316C176.51 163.548 176.202 164.612 175.736 165.508C175.269 166.404 174.569 167.095 173.636 167.58C172.721 168.065 171.489 168.308 169.94 168.308C169.006 168.308 168.185 168.205 167.476 168C166.766 167.795 166.122 167.487 165.544 167.076L166.3 164.5ZM191.395 168.14C189.977 168.14 188.679 167.86 187.503 167.3C186.346 166.74 185.347 165.984 184.507 165.032C183.667 164.061 183.014 162.979 182.547 161.784C182.099 160.571 181.875 159.329 181.875 158.06C181.875 156.735 182.118 155.475 182.603 154.28C183.089 153.067 183.761 151.993 184.619 151.06C185.478 150.108 186.486 149.361 187.643 148.82C188.819 148.26 190.089 147.98 191.451 147.98C192.87 147.98 194.158 148.269 195.315 148.848C196.491 149.427 197.49 150.201 198.311 151.172C199.151 152.143 199.795 153.225 200.243 154.42C200.71 155.615 200.943 156.837 200.943 158.088C200.943 159.413 200.701 160.683 200.215 161.896C199.749 163.091 199.086 164.164 198.227 165.116C197.369 166.049 196.351 166.787 195.175 167.328C194.018 167.869 192.758 168.14 191.395 168.14ZM185.067 158.06C185.067 159.311 185.329 160.496 185.851 161.616C186.374 162.717 187.102 163.613 188.035 164.304C188.987 164.976 190.117 165.312 191.423 165.312C192.413 165.312 193.299 165.107 194.083 164.696C194.867 164.285 195.53 163.735 196.071 163.044C196.613 162.335 197.023 161.551 197.303 160.692C197.583 159.833 197.723 158.956 197.723 158.06C197.723 156.809 197.462 155.633 196.939 154.532C196.435 153.431 195.707 152.544 194.755 151.872C193.803 151.181 192.693 150.836 191.423 150.836C190.415 150.836 189.519 151.041 188.735 151.452C187.951 151.863 187.289 152.413 186.747 153.104C186.206 153.795 185.786 154.569 185.487 155.428C185.207 156.287 185.067 157.164 185.067 158.06ZM206.294 148.12L211.782 158.004L217.326 148.12H220.77L213.35 160.888V168H210.214V160.832L202.85 148.12H206.294Z" fill="url(#paint0_linear)"/>
</g>
</g>
<defs>
<filter id="filter0_d" x="0" y="0" width="316" height="316" filterUnits="userSpaceOnUse" color-interpolation-filters="sRGB">
<feFlood flood-opacity="0" result="BackgroundImageFix"/>
<feColorMatrix in="SourceAlpha" type="matrix" values="0 0 0 0 0 0 0 0 0 0 0 0 0 0 0 0 0 0 127 0"/>
<feMorphology radius="1" operator="dilate" in="SourceAlpha" result="effect1_dropShadow"/>
<feOffset/>
<feGaussianBlur stdDeviation="8.5"/>
<feColorMatrix type="matrix" values="0 0 0 0 0 0 0 0 0 0 0 0 0 0 0 0 0 0 0.67 0"/>
<feBlend mode="normal" in2="BackgroundImageFix" result="effect1_dropShadow"/>
<feBlend mode="normal" in="SourceGraphic" in2="effect1_dropShadow" result="shape"/>
</filter>
<linearGradient id="paint0_linear" x1="125" y1="147.5" x2="213" y2="168" gradientUnits="userSpaceOnUse">
<stop stop-color="#DCC342"/>
<stop offset="1" stop-color="#398EE3"/>
</linearGradient>
<clipPath id="clip0">
<rect x="18" y="18" width="280" height="280" rx="140" fill="white"/>
</clipPath>
</defs>
</svg>
