<svg width="28" height="22" viewBox="0 0 28 22" fill="none" xmlns="http://www.w3.org/2000/svg">
<path d="M26.3379 1.01121C25.2497 1.76409 24.0448 2.33993 22.7697 2.71654C22.0853 1.9447 21.1758 1.39763 20.1641 1.14934C19.1524 0.901042 18.0873 0.963498 17.113 1.32826C16.1386 1.69302 15.302 2.34249 14.7163 3.18882C14.1305 4.03515 13.8239 5.03751 13.8379 6.06034V7.17494C11.8409 7.22573 9.86207 6.79131 8.07767 5.91037C6.29328 5.02942 4.75871 3.72931 3.61062 2.12581C3.61062 2.12581 -0.934837 12.1572 9.29244 16.6156C6.95213 18.1738 4.16421 18.9551 1.33789 18.8448C11.5652 24.4178 24.0652 18.8448 24.0652 6.0269C24.0641 5.71643 24.0337 5.40673 23.9743 5.10178C25.134 3.97993 25.9525 2.56352 26.3379 1.01121V1.01121Z" stroke="white" stroke-width="2" stroke-linecap="round" stroke-linejoin="round"/>
</svg>
